<svg width="404" height="173" viewBox="0 0 404 173" fill="none" xmlns="http://www.w3.org/2000/svg">
<path d="M99.8244 47.032H69.5456L53 124.956H64.2374L70.8957 93.58H95.1412C112.52 93.58 125.212 83.916 125.212 68.228C125.216 54.304 113.666 47.032 99.8244 47.032ZM95.1412 84.228H72.8747L78.8039 56.384H99.8244C107.941 56.384 113.458 60.748 113.458 68.228C113.458 77.264 106.487 84.228 95.1412 84.228Z" fill="black"/>
<path d="M145.924 89.212H181.924V78.824H145.924V57.42H190.248V47.032H134.682V124.956H191.29V114.564H145.924V89.212Z" fill="black"/>
<path d="M261.423 69.264C261.423 54.096 249.352 47.032 235.306 47.032H200.865V124.956H212.102V91.5H229.481L250.085 124.956H262.989V124.436L241.239 91.084C252.581 89.32 261.423 82.252 261.423 69.264ZM212.102 82.148V56.38H235.306C243.11 56.38 249.56 60.432 249.56 69.264C249.56 78.096 243.11 82.148 235.306 82.148H212.102Z" fill="black"/>
<path d="M306.584 85.268V94.62H332.184C330.726 109.788 318.655 116.232 305.234 116.232C291.393 116.232 279.218 106.88 279.218 86C279.218 65.12 291.08 55.768 305.543 55.768C317.718 55.768 327.393 61.48 330.205 73.844H341.234C338.009 55.144 323.647 46 305.543 46C284.939 46 267.356 58.988 267.356 86C267.356 113.012 285.255 126 305.234 126C316.993 126 327.917 121.428 333.33 111.352V124.964H341.655V85.276H306.584V85.268Z" fill="black"/>
</svg>
